<mxfile host="app.diagrams.net" agent="Mozilla/5.0 (Windows NT 10.0; Win64; x64) AppleWebKit/537.36 (KHTML, like Gecko) Chrome/134.0.0.0 Safari/537.36" version="26.1.1">
  <diagram name="第 1 页" id="vaXZ1u9BHw6QRR23UWEu">
    <mxGraphModel dx="3938" dy="1527" grid="1" gridSize="10" guides="1" tooltips="1" connect="1" arrows="1" fold="1" page="1" pageScale="1" pageWidth="827" pageHeight="1169" math="0" shadow="0">
      <root>
        <mxCell id="0" />
        <mxCell id="1" parent="0" />
        <mxCell id="1sGNB1V-jxaKG5MZI_IA-1" value="&lt;font style=&quot;font-size: 14px;&quot;&gt;病人病历&lt;/font&gt;" style="rounded=0;whiteSpace=wrap;html=1;" vertex="1" parent="1">
          <mxGeometry x="-227" y="790" width="100" height="50" as="geometry" />
        </mxCell>
        <mxCell id="1sGNB1V-jxaKG5MZI_IA-2" value="病历编号" style="ellipse;whiteSpace=wrap;html=1;" vertex="1" parent="1">
          <mxGeometry x="-539" y="675" width="80" height="50" as="geometry" />
        </mxCell>
        <mxCell id="1sGNB1V-jxaKG5MZI_IA-3" value="性别" style="ellipse;whiteSpace=wrap;html=1;" vertex="1" parent="1">
          <mxGeometry x="-493" y="625" width="80" height="50" as="geometry" />
        </mxCell>
        <mxCell id="1sGNB1V-jxaKG5MZI_IA-4" value="年龄" style="ellipse;whiteSpace=wrap;html=1;" vertex="1" parent="1">
          <mxGeometry x="-433" y="575" width="80" height="50" as="geometry" />
        </mxCell>
        <mxCell id="1sGNB1V-jxaKG5MZI_IA-5" value="现住地址" style="ellipse;whiteSpace=wrap;html=1;" vertex="1" parent="1">
          <mxGeometry x="-363" y="535" width="80" height="50" as="geometry" />
        </mxCell>
        <mxCell id="1sGNB1V-jxaKG5MZI_IA-6" value="入院日期" style="ellipse;whiteSpace=wrap;html=1;" vertex="1" parent="1">
          <mxGeometry x="-283" y="505" width="80" height="50" as="geometry" />
        </mxCell>
        <mxCell id="1sGNB1V-jxaKG5MZI_IA-7" value="病史" style="ellipse;whiteSpace=wrap;html=1;" vertex="1" parent="1">
          <mxGeometry x="-193" y="535" width="80" height="50" as="geometry" />
        </mxCell>
        <mxCell id="1sGNB1V-jxaKG5MZI_IA-8" value="初步诊断" style="ellipse;whiteSpace=wrap;html=1;" vertex="1" parent="1">
          <mxGeometry x="-123" y="585" width="80" height="50" as="geometry" />
        </mxCell>
        <mxCell id="1sGNB1V-jxaKG5MZI_IA-9" value="医生账号" style="ellipse;whiteSpace=wrap;html=1;" vertex="1" parent="1">
          <mxGeometry x="-86" y="655" width="80" height="50" as="geometry" />
        </mxCell>
        <mxCell id="1sGNB1V-jxaKG5MZI_IA-11" value="" style="endArrow=none;html=1;rounded=0;entryX=1;entryY=1;entryDx=0;entryDy=0;exitX=0.5;exitY=0;exitDx=0;exitDy=0;" edge="1" parent="1" source="1sGNB1V-jxaKG5MZI_IA-1" target="1sGNB1V-jxaKG5MZI_IA-2">
          <mxGeometry width="50" height="50" relative="1" as="geometry">
            <mxPoint x="-367" y="860" as="sourcePoint" />
            <mxPoint x="-317" y="810" as="targetPoint" />
          </mxGeometry>
        </mxCell>
        <mxCell id="1sGNB1V-jxaKG5MZI_IA-12" value="" style="endArrow=none;html=1;rounded=0;entryX=0.5;entryY=1;entryDx=0;entryDy=0;exitX=0.5;exitY=0;exitDx=0;exitDy=0;" edge="1" parent="1" source="1sGNB1V-jxaKG5MZI_IA-1" target="1sGNB1V-jxaKG5MZI_IA-3">
          <mxGeometry width="50" height="50" relative="1" as="geometry">
            <mxPoint x="-167" y="800" as="sourcePoint" />
            <mxPoint x="-369" y="723" as="targetPoint" />
          </mxGeometry>
        </mxCell>
        <mxCell id="1sGNB1V-jxaKG5MZI_IA-13" value="" style="endArrow=none;html=1;rounded=0;entryX=0.5;entryY=1;entryDx=0;entryDy=0;exitX=0.5;exitY=0;exitDx=0;exitDy=0;" edge="1" parent="1" source="1sGNB1V-jxaKG5MZI_IA-1" target="1sGNB1V-jxaKG5MZI_IA-4">
          <mxGeometry width="50" height="50" relative="1" as="geometry">
            <mxPoint x="-167" y="800" as="sourcePoint" />
            <mxPoint x="-333" y="670" as="targetPoint" />
          </mxGeometry>
        </mxCell>
        <mxCell id="1sGNB1V-jxaKG5MZI_IA-14" value="" style="endArrow=none;html=1;rounded=0;entryX=0.5;entryY=1;entryDx=0;entryDy=0;exitX=0.5;exitY=0;exitDx=0;exitDy=0;" edge="1" parent="1" source="1sGNB1V-jxaKG5MZI_IA-1" target="1sGNB1V-jxaKG5MZI_IA-5">
          <mxGeometry width="50" height="50" relative="1" as="geometry">
            <mxPoint x="-117" y="790" as="sourcePoint" />
            <mxPoint x="-217" y="620" as="targetPoint" />
          </mxGeometry>
        </mxCell>
        <mxCell id="1sGNB1V-jxaKG5MZI_IA-15" value="" style="endArrow=none;html=1;rounded=0;entryX=0.5;entryY=1;entryDx=0;entryDy=0;exitX=0.5;exitY=0;exitDx=0;exitDy=0;" edge="1" parent="1" source="1sGNB1V-jxaKG5MZI_IA-1" target="1sGNB1V-jxaKG5MZI_IA-6">
          <mxGeometry width="50" height="50" relative="1" as="geometry">
            <mxPoint x="-137" y="795" as="sourcePoint" />
            <mxPoint x="-147" y="595" as="targetPoint" />
          </mxGeometry>
        </mxCell>
        <mxCell id="1sGNB1V-jxaKG5MZI_IA-16" value="" style="endArrow=none;html=1;rounded=0;entryX=0.5;entryY=1;entryDx=0;entryDy=0;exitX=0.5;exitY=0;exitDx=0;exitDy=0;" edge="1" parent="1" source="1sGNB1V-jxaKG5MZI_IA-1" target="1sGNB1V-jxaKG5MZI_IA-7">
          <mxGeometry width="50" height="50" relative="1" as="geometry">
            <mxPoint x="-167" y="800" as="sourcePoint" />
            <mxPoint x="-77" y="620" as="targetPoint" />
          </mxGeometry>
        </mxCell>
        <mxCell id="1sGNB1V-jxaKG5MZI_IA-17" value="" style="endArrow=none;html=1;rounded=0;entryX=0;entryY=1;entryDx=0;entryDy=0;exitX=0.5;exitY=0;exitDx=0;exitDy=0;" edge="1" parent="1" source="1sGNB1V-jxaKG5MZI_IA-1" target="1sGNB1V-jxaKG5MZI_IA-8">
          <mxGeometry width="50" height="50" relative="1" as="geometry">
            <mxPoint x="-167" y="800" as="sourcePoint" />
            <mxPoint x="3" y="660" as="targetPoint" />
          </mxGeometry>
        </mxCell>
        <mxCell id="1sGNB1V-jxaKG5MZI_IA-18" value="" style="endArrow=none;html=1;rounded=0;entryX=0;entryY=1;entryDx=0;entryDy=0;exitX=0.5;exitY=0;exitDx=0;exitDy=0;" edge="1" parent="1" source="1sGNB1V-jxaKG5MZI_IA-1" target="1sGNB1V-jxaKG5MZI_IA-9">
          <mxGeometry width="50" height="50" relative="1" as="geometry">
            <mxPoint x="-167" y="800" as="sourcePoint" />
            <mxPoint x="-25" y="633" as="targetPoint" />
          </mxGeometry>
        </mxCell>
        <mxCell id="1sGNB1V-jxaKG5MZI_IA-19" value="&lt;font style=&quot;font-size: 14px;&quot;&gt;医生&lt;/font&gt;" style="rounded=0;whiteSpace=wrap;html=1;" vertex="1" parent="1">
          <mxGeometry x="480" y="590" width="100" height="50" as="geometry" />
        </mxCell>
        <mxCell id="1sGNB1V-jxaKG5MZI_IA-20" value="医生账号" style="ellipse;whiteSpace=wrap;html=1;" vertex="1" parent="1">
          <mxGeometry x="366" y="320" width="80" height="50" as="geometry" />
        </mxCell>
        <mxCell id="1sGNB1V-jxaKG5MZI_IA-21" value="密码" style="ellipse;whiteSpace=wrap;html=1;" vertex="1" parent="1">
          <mxGeometry x="416" y="255" width="80" height="50" as="geometry" />
        </mxCell>
        <mxCell id="1sGNB1V-jxaKG5MZI_IA-22" value="姓名" style="ellipse;whiteSpace=wrap;html=1;" vertex="1" parent="1">
          <mxGeometry x="506" y="220" width="80" height="50" as="geometry" />
        </mxCell>
        <mxCell id="1sGNB1V-jxaKG5MZI_IA-23" value="性别" style="ellipse;whiteSpace=wrap;html=1;" vertex="1" parent="1">
          <mxGeometry x="600" y="220" width="80" height="50" as="geometry" />
        </mxCell>
        <mxCell id="1sGNB1V-jxaKG5MZI_IA-24" value="出生日期" style="ellipse;whiteSpace=wrap;html=1;" vertex="1" parent="1">
          <mxGeometry x="693" y="220" width="80" height="50" as="geometry" />
        </mxCell>
        <mxCell id="1sGNB1V-jxaKG5MZI_IA-25" value="手机" style="ellipse;whiteSpace=wrap;html=1;" vertex="1" parent="1">
          <mxGeometry x="773" y="255" width="80" height="50" as="geometry" />
        </mxCell>
        <mxCell id="1sGNB1V-jxaKG5MZI_IA-26" value="邮箱" style="ellipse;whiteSpace=wrap;html=1;" vertex="1" parent="1">
          <mxGeometry x="816" y="320" width="80" height="50" as="geometry" />
        </mxCell>
        <mxCell id="1sGNB1V-jxaKG5MZI_IA-27" value="科室" style="ellipse;whiteSpace=wrap;html=1;" vertex="1" parent="1">
          <mxGeometry x="837" y="390" width="80" height="50" as="geometry" />
        </mxCell>
        <mxCell id="1sGNB1V-jxaKG5MZI_IA-28" value="" style="endArrow=none;html=1;rounded=0;entryX=1;entryY=1;entryDx=0;entryDy=0;exitX=0.5;exitY=0;exitDx=0;exitDy=0;" edge="1" parent="1" source="1sGNB1V-jxaKG5MZI_IA-19" target="1sGNB1V-jxaKG5MZI_IA-20">
          <mxGeometry width="50" height="50" relative="1" as="geometry">
            <mxPoint x="340" y="660" as="sourcePoint" />
            <mxPoint x="390" y="610" as="targetPoint" />
          </mxGeometry>
        </mxCell>
        <mxCell id="1sGNB1V-jxaKG5MZI_IA-29" value="" style="endArrow=none;html=1;rounded=0;entryX=0.5;entryY=1;entryDx=0;entryDy=0;exitX=0.5;exitY=0;exitDx=0;exitDy=0;" edge="1" parent="1" source="1sGNB1V-jxaKG5MZI_IA-19" target="1sGNB1V-jxaKG5MZI_IA-21">
          <mxGeometry width="50" height="50" relative="1" as="geometry">
            <mxPoint x="540" y="600" as="sourcePoint" />
            <mxPoint x="338" y="523" as="targetPoint" />
          </mxGeometry>
        </mxCell>
        <mxCell id="1sGNB1V-jxaKG5MZI_IA-30" value="" style="endArrow=none;html=1;rounded=0;entryX=0.5;entryY=1;entryDx=0;entryDy=0;exitX=0.5;exitY=0;exitDx=0;exitDy=0;" edge="1" parent="1" source="1sGNB1V-jxaKG5MZI_IA-19" target="1sGNB1V-jxaKG5MZI_IA-22">
          <mxGeometry width="50" height="50" relative="1" as="geometry">
            <mxPoint x="540" y="600" as="sourcePoint" />
            <mxPoint x="374" y="470" as="targetPoint" />
          </mxGeometry>
        </mxCell>
        <mxCell id="1sGNB1V-jxaKG5MZI_IA-31" value="" style="endArrow=none;html=1;rounded=0;entryX=0.5;entryY=1;entryDx=0;entryDy=0;exitX=0.5;exitY=0;exitDx=0;exitDy=0;" edge="1" parent="1" source="1sGNB1V-jxaKG5MZI_IA-19" target="1sGNB1V-jxaKG5MZI_IA-23">
          <mxGeometry width="50" height="50" relative="1" as="geometry">
            <mxPoint x="590" y="590" as="sourcePoint" />
            <mxPoint x="490" y="420" as="targetPoint" />
          </mxGeometry>
        </mxCell>
        <mxCell id="1sGNB1V-jxaKG5MZI_IA-32" value="" style="endArrow=none;html=1;rounded=0;entryX=0.5;entryY=1;entryDx=0;entryDy=0;exitX=0.5;exitY=0;exitDx=0;exitDy=0;" edge="1" parent="1" source="1sGNB1V-jxaKG5MZI_IA-19" target="1sGNB1V-jxaKG5MZI_IA-24">
          <mxGeometry width="50" height="50" relative="1" as="geometry">
            <mxPoint x="570" y="595" as="sourcePoint" />
            <mxPoint x="560" y="395" as="targetPoint" />
          </mxGeometry>
        </mxCell>
        <mxCell id="1sGNB1V-jxaKG5MZI_IA-33" value="" style="endArrow=none;html=1;rounded=0;entryX=0.5;entryY=1;entryDx=0;entryDy=0;exitX=0.5;exitY=0;exitDx=0;exitDy=0;" edge="1" parent="1" source="1sGNB1V-jxaKG5MZI_IA-19" target="1sGNB1V-jxaKG5MZI_IA-25">
          <mxGeometry width="50" height="50" relative="1" as="geometry">
            <mxPoint x="540" y="600" as="sourcePoint" />
            <mxPoint x="630" y="420" as="targetPoint" />
          </mxGeometry>
        </mxCell>
        <mxCell id="1sGNB1V-jxaKG5MZI_IA-34" value="" style="endArrow=none;html=1;rounded=0;entryX=0;entryY=1;entryDx=0;entryDy=0;exitX=0.5;exitY=0;exitDx=0;exitDy=0;" edge="1" parent="1" source="1sGNB1V-jxaKG5MZI_IA-19" target="1sGNB1V-jxaKG5MZI_IA-26">
          <mxGeometry width="50" height="50" relative="1" as="geometry">
            <mxPoint x="540" y="600" as="sourcePoint" />
            <mxPoint x="710" y="460" as="targetPoint" />
          </mxGeometry>
        </mxCell>
        <mxCell id="1sGNB1V-jxaKG5MZI_IA-35" value="" style="endArrow=none;html=1;rounded=0;entryX=0;entryY=1;entryDx=0;entryDy=0;exitX=0.5;exitY=0;exitDx=0;exitDy=0;" edge="1" parent="1" source="1sGNB1V-jxaKG5MZI_IA-19" target="1sGNB1V-jxaKG5MZI_IA-27">
          <mxGeometry width="50" height="50" relative="1" as="geometry">
            <mxPoint x="540" y="600" as="sourcePoint" />
            <mxPoint x="682" y="433" as="targetPoint" />
          </mxGeometry>
        </mxCell>
        <mxCell id="1sGNB1V-jxaKG5MZI_IA-36" value="医生编号" style="ellipse;whiteSpace=wrap;html=1;" vertex="1" parent="1">
          <mxGeometry x="320" y="380" width="80" height="50" as="geometry" />
        </mxCell>
        <mxCell id="1sGNB1V-jxaKG5MZI_IA-37" value="" style="endArrow=none;html=1;rounded=0;entryX=0.5;entryY=0;entryDx=0;entryDy=0;exitX=1;exitY=1;exitDx=0;exitDy=0;" edge="1" parent="1" source="1sGNB1V-jxaKG5MZI_IA-36" target="1sGNB1V-jxaKG5MZI_IA-19">
          <mxGeometry width="50" height="50" relative="1" as="geometry">
            <mxPoint x="300" y="510" as="sourcePoint" />
            <mxPoint x="350" y="460" as="targetPoint" />
          </mxGeometry>
        </mxCell>
        <mxCell id="1sGNB1V-jxaKG5MZI_IA-38" value="&lt;font style=&quot;font-size: 14px;&quot;&gt;医院科室&lt;/font&gt;" style="rounded=0;whiteSpace=wrap;html=1;" vertex="1" parent="1">
          <mxGeometry x="-221" y="330" width="100" height="50" as="geometry" />
        </mxCell>
        <mxCell id="1sGNB1V-jxaKG5MZI_IA-39" value="科室类型" style="ellipse;whiteSpace=wrap;html=1;" vertex="1" parent="1">
          <mxGeometry x="-312.5" y="130" width="80" height="50" as="geometry" />
        </mxCell>
        <mxCell id="1sGNB1V-jxaKG5MZI_IA-40" value="科室简介" style="ellipse;whiteSpace=wrap;html=1;" vertex="1" parent="1">
          <mxGeometry x="-215" y="100" width="80" height="50" as="geometry" />
        </mxCell>
        <mxCell id="1sGNB1V-jxaKG5MZI_IA-41" value="科室人员" style="ellipse;whiteSpace=wrap;html=1;" vertex="1" parent="1">
          <mxGeometry x="-116.5" y="100" width="80" height="50" as="geometry" />
        </mxCell>
        <mxCell id="1sGNB1V-jxaKG5MZI_IA-42" value="科室图片" style="ellipse;whiteSpace=wrap;html=1;" vertex="1" parent="1">
          <mxGeometry x="-36.5" y="155" width="80" height="50" as="geometry" />
        </mxCell>
        <mxCell id="1sGNB1V-jxaKG5MZI_IA-43" value="医院编号" style="ellipse;whiteSpace=wrap;html=1;" vertex="1" parent="1">
          <mxGeometry x="-9.5" y="210" width="80" height="50" as="geometry" />
        </mxCell>
        <mxCell id="1sGNB1V-jxaKG5MZI_IA-47" value="" style="endArrow=none;html=1;rounded=0;entryX=1;entryY=1;entryDx=0;entryDy=0;exitX=0.5;exitY=0;exitDx=0;exitDy=0;" edge="1" parent="1" source="1sGNB1V-jxaKG5MZI_IA-38" target="1sGNB1V-jxaKG5MZI_IA-39">
          <mxGeometry width="50" height="50" relative="1" as="geometry">
            <mxPoint x="-361" y="400" as="sourcePoint" />
            <mxPoint x="-311" y="350" as="targetPoint" />
          </mxGeometry>
        </mxCell>
        <mxCell id="1sGNB1V-jxaKG5MZI_IA-48" value="" style="endArrow=none;html=1;rounded=0;entryX=0.5;entryY=1;entryDx=0;entryDy=0;exitX=0.5;exitY=0;exitDx=0;exitDy=0;" edge="1" parent="1" source="1sGNB1V-jxaKG5MZI_IA-38" target="1sGNB1V-jxaKG5MZI_IA-40">
          <mxGeometry width="50" height="50" relative="1" as="geometry">
            <mxPoint x="-161" y="340" as="sourcePoint" />
            <mxPoint x="-363" y="263" as="targetPoint" />
          </mxGeometry>
        </mxCell>
        <mxCell id="1sGNB1V-jxaKG5MZI_IA-49" value="" style="endArrow=none;html=1;rounded=0;entryX=0.5;entryY=1;entryDx=0;entryDy=0;exitX=0.5;exitY=0;exitDx=0;exitDy=0;" edge="1" parent="1" source="1sGNB1V-jxaKG5MZI_IA-38" target="1sGNB1V-jxaKG5MZI_IA-41">
          <mxGeometry width="50" height="50" relative="1" as="geometry">
            <mxPoint x="-161" y="340" as="sourcePoint" />
            <mxPoint x="-327" y="210" as="targetPoint" />
          </mxGeometry>
        </mxCell>
        <mxCell id="1sGNB1V-jxaKG5MZI_IA-50" value="" style="endArrow=none;html=1;rounded=0;entryX=0.5;entryY=1;entryDx=0;entryDy=0;exitX=0.5;exitY=0;exitDx=0;exitDy=0;" edge="1" parent="1" source="1sGNB1V-jxaKG5MZI_IA-38" target="1sGNB1V-jxaKG5MZI_IA-42">
          <mxGeometry width="50" height="50" relative="1" as="geometry">
            <mxPoint x="-111" y="330" as="sourcePoint" />
            <mxPoint x="-211" y="160" as="targetPoint" />
          </mxGeometry>
        </mxCell>
        <mxCell id="1sGNB1V-jxaKG5MZI_IA-51" value="" style="endArrow=none;html=1;rounded=0;entryX=0.5;entryY=1;entryDx=0;entryDy=0;exitX=0.5;exitY=0;exitDx=0;exitDy=0;" edge="1" parent="1" source="1sGNB1V-jxaKG5MZI_IA-38" target="1sGNB1V-jxaKG5MZI_IA-43">
          <mxGeometry width="50" height="50" relative="1" as="geometry">
            <mxPoint x="-131" y="335" as="sourcePoint" />
            <mxPoint x="-141" y="135" as="targetPoint" />
          </mxGeometry>
        </mxCell>
        <mxCell id="1sGNB1V-jxaKG5MZI_IA-55" value="科室名称" style="ellipse;whiteSpace=wrap;html=1;" vertex="1" parent="1">
          <mxGeometry x="-366.5" y="210" width="80" height="50" as="geometry" />
        </mxCell>
        <mxCell id="1sGNB1V-jxaKG5MZI_IA-56" value="" style="endArrow=none;html=1;rounded=0;entryX=0.5;entryY=0;entryDx=0;entryDy=0;exitX=1;exitY=1;exitDx=0;exitDy=0;" edge="1" parent="1" source="1sGNB1V-jxaKG5MZI_IA-55" target="1sGNB1V-jxaKG5MZI_IA-38">
          <mxGeometry width="50" height="50" relative="1" as="geometry">
            <mxPoint x="-401" y="250" as="sourcePoint" />
            <mxPoint x="-351" y="200" as="targetPoint" />
          </mxGeometry>
        </mxCell>
        <mxCell id="1sGNB1V-jxaKG5MZI_IA-57" value="&lt;font style=&quot;font-size: 14px;&quot;&gt;患者&lt;/font&gt;" style="rounded=0;whiteSpace=wrap;html=1;" vertex="1" parent="1">
          <mxGeometry x="520" y="980" width="100" height="50" as="geometry" />
        </mxCell>
        <mxCell id="1sGNB1V-jxaKG5MZI_IA-58" value="密码" style="ellipse;whiteSpace=wrap;html=1;" vertex="1" parent="1">
          <mxGeometry x="305.5" y="755" width="80" height="50" as="geometry" />
        </mxCell>
        <mxCell id="1sGNB1V-jxaKG5MZI_IA-59" value="姓名" style="ellipse;whiteSpace=wrap;html=1;" vertex="1" parent="1">
          <mxGeometry x="351.5" y="705" width="80" height="50" as="geometry" />
        </mxCell>
        <mxCell id="1sGNB1V-jxaKG5MZI_IA-60" value="性别" style="ellipse;whiteSpace=wrap;html=1;" vertex="1" parent="1">
          <mxGeometry x="421.5" y="665" width="80" height="50" as="geometry" />
        </mxCell>
        <mxCell id="1sGNB1V-jxaKG5MZI_IA-61" value="手机" style="ellipse;whiteSpace=wrap;html=1;" vertex="1" parent="1">
          <mxGeometry x="511.5" y="645" width="80" height="50" as="geometry" />
        </mxCell>
        <mxCell id="1sGNB1V-jxaKG5MZI_IA-62" value="邮箱" style="ellipse;whiteSpace=wrap;html=1;" vertex="1" parent="1">
          <mxGeometry x="599" y="655" width="80" height="50" as="geometry" />
        </mxCell>
        <mxCell id="1sGNB1V-jxaKG5MZI_IA-63" value="" style="endArrow=none;html=1;rounded=0;entryX=1;entryY=1;entryDx=0;entryDy=0;exitX=0.5;exitY=0;exitDx=0;exitDy=0;" edge="1" parent="1" source="1sGNB1V-jxaKG5MZI_IA-57" target="1sGNB1V-jxaKG5MZI_IA-58">
          <mxGeometry width="50" height="50" relative="1" as="geometry">
            <mxPoint x="380" y="1050" as="sourcePoint" />
            <mxPoint x="430" y="1000" as="targetPoint" />
          </mxGeometry>
        </mxCell>
        <mxCell id="1sGNB1V-jxaKG5MZI_IA-64" value="" style="endArrow=none;html=1;rounded=0;entryX=0.5;entryY=1;entryDx=0;entryDy=0;exitX=0.5;exitY=0;exitDx=0;exitDy=0;" edge="1" parent="1" source="1sGNB1V-jxaKG5MZI_IA-57" target="1sGNB1V-jxaKG5MZI_IA-59">
          <mxGeometry width="50" height="50" relative="1" as="geometry">
            <mxPoint x="580" y="990" as="sourcePoint" />
            <mxPoint x="378" y="913" as="targetPoint" />
          </mxGeometry>
        </mxCell>
        <mxCell id="1sGNB1V-jxaKG5MZI_IA-65" value="" style="endArrow=none;html=1;rounded=0;entryX=0.5;entryY=1;entryDx=0;entryDy=0;exitX=0.5;exitY=0;exitDx=0;exitDy=0;" edge="1" parent="1" source="1sGNB1V-jxaKG5MZI_IA-57" target="1sGNB1V-jxaKG5MZI_IA-60">
          <mxGeometry width="50" height="50" relative="1" as="geometry">
            <mxPoint x="580" y="990" as="sourcePoint" />
            <mxPoint x="414" y="860" as="targetPoint" />
          </mxGeometry>
        </mxCell>
        <mxCell id="1sGNB1V-jxaKG5MZI_IA-66" value="" style="endArrow=none;html=1;rounded=0;entryX=0.5;entryY=1;entryDx=0;entryDy=0;exitX=0.5;exitY=0;exitDx=0;exitDy=0;" edge="1" parent="1" source="1sGNB1V-jxaKG5MZI_IA-57" target="1sGNB1V-jxaKG5MZI_IA-61">
          <mxGeometry width="50" height="50" relative="1" as="geometry">
            <mxPoint x="630" y="980" as="sourcePoint" />
            <mxPoint x="530" y="810" as="targetPoint" />
          </mxGeometry>
        </mxCell>
        <mxCell id="1sGNB1V-jxaKG5MZI_IA-67" value="" style="endArrow=none;html=1;rounded=0;entryX=0.5;entryY=1;entryDx=0;entryDy=0;exitX=0.5;exitY=0;exitDx=0;exitDy=0;" edge="1" parent="1" source="1sGNB1V-jxaKG5MZI_IA-57" target="1sGNB1V-jxaKG5MZI_IA-62">
          <mxGeometry width="50" height="50" relative="1" as="geometry">
            <mxPoint x="610" y="985" as="sourcePoint" />
            <mxPoint x="600" y="785" as="targetPoint" />
          </mxGeometry>
        </mxCell>
        <mxCell id="1sGNB1V-jxaKG5MZI_IA-68" value="账号" style="ellipse;whiteSpace=wrap;html=1;" vertex="1" parent="1">
          <mxGeometry x="261.5" y="805" width="80" height="50" as="geometry" />
        </mxCell>
        <mxCell id="1sGNB1V-jxaKG5MZI_IA-69" value="" style="endArrow=none;html=1;rounded=0;entryX=0.5;entryY=0;entryDx=0;entryDy=0;exitX=1;exitY=1;exitDx=0;exitDy=0;" edge="1" parent="1" source="1sGNB1V-jxaKG5MZI_IA-68" target="1sGNB1V-jxaKG5MZI_IA-57">
          <mxGeometry width="50" height="50" relative="1" as="geometry">
            <mxPoint x="340" y="900" as="sourcePoint" />
            <mxPoint x="390" y="850" as="targetPoint" />
          </mxGeometry>
        </mxCell>
        <mxCell id="1sGNB1V-jxaKG5MZI_IA-70" value="身份证" style="ellipse;whiteSpace=wrap;html=1;" vertex="1" parent="1">
          <mxGeometry x="669" y="715" width="80" height="50" as="geometry" />
        </mxCell>
        <mxCell id="1sGNB1V-jxaKG5MZI_IA-71" value="" style="endArrow=none;html=1;rounded=0;entryX=0.5;entryY=1;entryDx=0;entryDy=0;exitX=0.5;exitY=0;exitDx=0;exitDy=0;" edge="1" parent="1" source="1sGNB1V-jxaKG5MZI_IA-57" target="1sGNB1V-jxaKG5MZI_IA-70">
          <mxGeometry width="50" height="50" relative="1" as="geometry">
            <mxPoint x="658.5" y="990" as="sourcePoint" />
            <mxPoint x="708.5" y="940" as="targetPoint" />
          </mxGeometry>
        </mxCell>
        <mxCell id="1sGNB1V-jxaKG5MZI_IA-72" value="照片" style="ellipse;whiteSpace=wrap;html=1;" vertex="1" parent="1">
          <mxGeometry x="718.5" y="775" width="80" height="50" as="geometry" />
        </mxCell>
        <mxCell id="1sGNB1V-jxaKG5MZI_IA-73" value="" style="endArrow=none;html=1;rounded=0;entryX=0.5;entryY=1;entryDx=0;entryDy=0;exitX=0.5;exitY=0;exitDx=0;exitDy=0;" edge="1" parent="1" source="1sGNB1V-jxaKG5MZI_IA-57" target="1sGNB1V-jxaKG5MZI_IA-72">
          <mxGeometry width="50" height="50" relative="1" as="geometry">
            <mxPoint x="580.5" y="990" as="sourcePoint" />
            <mxPoint x="708.5" y="830" as="targetPoint" />
          </mxGeometry>
        </mxCell>
        <mxCell id="1sGNB1V-jxaKG5MZI_IA-74" value="&lt;span style=&quot;font-size: 14px;&quot;&gt;科室预约&lt;/span&gt;" style="rounded=0;whiteSpace=wrap;html=1;" vertex="1" parent="1">
          <mxGeometry x="1450.5" y="605" width="100" height="50" as="geometry" />
        </mxCell>
        <mxCell id="1sGNB1V-jxaKG5MZI_IA-75" value="科室类型" style="ellipse;whiteSpace=wrap;html=1;" vertex="1" parent="1">
          <mxGeometry x="1224" y="445" width="80" height="50" as="geometry" />
        </mxCell>
        <mxCell id="1sGNB1V-jxaKG5MZI_IA-76" value="科室名称" style="ellipse;whiteSpace=wrap;html=1;" vertex="1" parent="1">
          <mxGeometry x="1270" y="395" width="80" height="50" as="geometry" />
        </mxCell>
        <mxCell id="1sGNB1V-jxaKG5MZI_IA-77" value="预约时间" style="ellipse;whiteSpace=wrap;html=1;" vertex="1" parent="1">
          <mxGeometry x="1340" y="355" width="80" height="50" as="geometry" />
        </mxCell>
        <mxCell id="1sGNB1V-jxaKG5MZI_IA-78" value="账号" style="ellipse;whiteSpace=wrap;html=1;" vertex="1" parent="1">
          <mxGeometry x="1430" y="335" width="80" height="50" as="geometry" />
        </mxCell>
        <mxCell id="1sGNB1V-jxaKG5MZI_IA-79" value="姓名" style="ellipse;whiteSpace=wrap;html=1;" vertex="1" parent="1">
          <mxGeometry x="1517.5" y="345" width="80" height="50" as="geometry" />
        </mxCell>
        <mxCell id="1sGNB1V-jxaKG5MZI_IA-80" value="" style="endArrow=none;html=1;rounded=0;entryX=1;entryY=1;entryDx=0;entryDy=0;exitX=0.5;exitY=0;exitDx=0;exitDy=0;" edge="1" parent="1" source="1sGNB1V-jxaKG5MZI_IA-74" target="1sGNB1V-jxaKG5MZI_IA-75">
          <mxGeometry width="50" height="50" relative="1" as="geometry">
            <mxPoint x="1310.5" y="675" as="sourcePoint" />
            <mxPoint x="1360.5" y="625" as="targetPoint" />
          </mxGeometry>
        </mxCell>
        <mxCell id="1sGNB1V-jxaKG5MZI_IA-81" value="" style="endArrow=none;html=1;rounded=0;entryX=0.5;entryY=1;entryDx=0;entryDy=0;exitX=0.5;exitY=0;exitDx=0;exitDy=0;" edge="1" parent="1" source="1sGNB1V-jxaKG5MZI_IA-74" target="1sGNB1V-jxaKG5MZI_IA-76">
          <mxGeometry width="50" height="50" relative="1" as="geometry">
            <mxPoint x="1510.5" y="615" as="sourcePoint" />
            <mxPoint x="1308.5" y="538" as="targetPoint" />
          </mxGeometry>
        </mxCell>
        <mxCell id="1sGNB1V-jxaKG5MZI_IA-82" value="" style="endArrow=none;html=1;rounded=0;entryX=0.5;entryY=1;entryDx=0;entryDy=0;exitX=0.5;exitY=0;exitDx=0;exitDy=0;" edge="1" parent="1" source="1sGNB1V-jxaKG5MZI_IA-74" target="1sGNB1V-jxaKG5MZI_IA-77">
          <mxGeometry width="50" height="50" relative="1" as="geometry">
            <mxPoint x="1510.5" y="615" as="sourcePoint" />
            <mxPoint x="1344.5" y="485" as="targetPoint" />
          </mxGeometry>
        </mxCell>
        <mxCell id="1sGNB1V-jxaKG5MZI_IA-83" value="" style="endArrow=none;html=1;rounded=0;entryX=0.5;entryY=1;entryDx=0;entryDy=0;exitX=0.5;exitY=0;exitDx=0;exitDy=0;" edge="1" parent="1" source="1sGNB1V-jxaKG5MZI_IA-74" target="1sGNB1V-jxaKG5MZI_IA-78">
          <mxGeometry width="50" height="50" relative="1" as="geometry">
            <mxPoint x="1560.5" y="605" as="sourcePoint" />
            <mxPoint x="1460.5" y="435" as="targetPoint" />
          </mxGeometry>
        </mxCell>
        <mxCell id="1sGNB1V-jxaKG5MZI_IA-84" value="" style="endArrow=none;html=1;rounded=0;entryX=0.5;entryY=1;entryDx=0;entryDy=0;exitX=0.5;exitY=0;exitDx=0;exitDy=0;" edge="1" parent="1" source="1sGNB1V-jxaKG5MZI_IA-74" target="1sGNB1V-jxaKG5MZI_IA-79">
          <mxGeometry width="50" height="50" relative="1" as="geometry">
            <mxPoint x="1540.5" y="610" as="sourcePoint" />
            <mxPoint x="1530.5" y="410" as="targetPoint" />
          </mxGeometry>
        </mxCell>
        <mxCell id="1sGNB1V-jxaKG5MZI_IA-85" value="科室编号" style="ellipse;whiteSpace=wrap;html=1;" vertex="1" parent="1">
          <mxGeometry x="1180" y="495" width="80" height="50" as="geometry" />
        </mxCell>
        <mxCell id="1sGNB1V-jxaKG5MZI_IA-86" value="" style="endArrow=none;html=1;rounded=0;entryX=0.5;entryY=0;entryDx=0;entryDy=0;exitX=1;exitY=1;exitDx=0;exitDy=0;" edge="1" parent="1" source="1sGNB1V-jxaKG5MZI_IA-85" target="1sGNB1V-jxaKG5MZI_IA-74">
          <mxGeometry width="50" height="50" relative="1" as="geometry">
            <mxPoint x="1270.5" y="525" as="sourcePoint" />
            <mxPoint x="1320.5" y="475" as="targetPoint" />
          </mxGeometry>
        </mxCell>
        <mxCell id="1sGNB1V-jxaKG5MZI_IA-87" value="是否审核" style="ellipse;whiteSpace=wrap;html=1;" vertex="1" parent="1">
          <mxGeometry x="1587.5" y="405" width="80" height="50" as="geometry" />
        </mxCell>
        <mxCell id="1sGNB1V-jxaKG5MZI_IA-88" value="" style="endArrow=none;html=1;rounded=0;entryX=0.5;entryY=1;entryDx=0;entryDy=0;exitX=0.5;exitY=0;exitDx=0;exitDy=0;" edge="1" parent="1" source="1sGNB1V-jxaKG5MZI_IA-74" target="1sGNB1V-jxaKG5MZI_IA-87">
          <mxGeometry width="50" height="50" relative="1" as="geometry">
            <mxPoint x="1589" y="615" as="sourcePoint" />
            <mxPoint x="1639" y="565" as="targetPoint" />
          </mxGeometry>
        </mxCell>
        <mxCell id="1sGNB1V-jxaKG5MZI_IA-89" value="审核回复" style="ellipse;whiteSpace=wrap;html=1;" vertex="1" parent="1">
          <mxGeometry x="1637" y="465" width="80" height="50" as="geometry" />
        </mxCell>
        <mxCell id="1sGNB1V-jxaKG5MZI_IA-90" value="" style="endArrow=none;html=1;rounded=0;entryX=0.5;entryY=1;entryDx=0;entryDy=0;exitX=0.5;exitY=0;exitDx=0;exitDy=0;" edge="1" parent="1" source="1sGNB1V-jxaKG5MZI_IA-74" target="1sGNB1V-jxaKG5MZI_IA-89">
          <mxGeometry width="50" height="50" relative="1" as="geometry">
            <mxPoint x="1511" y="615" as="sourcePoint" />
            <mxPoint x="1639" y="455" as="targetPoint" />
          </mxGeometry>
        </mxCell>
        <mxCell id="1sGNB1V-jxaKG5MZI_IA-91" value="任职" style="rhombus;whiteSpace=wrap;html=1;rotation=20;" vertex="1" parent="1">
          <mxGeometry x="100" y="440" width="60" height="60" as="geometry" />
        </mxCell>
        <mxCell id="1sGNB1V-jxaKG5MZI_IA-92" value="" style="endArrow=none;html=1;rounded=0;entryX=0;entryY=0.5;entryDx=0;entryDy=0;exitX=1;exitY=0.5;exitDx=0;exitDy=0;" edge="1" parent="1" source="1sGNB1V-jxaKG5MZI_IA-91" target="1sGNB1V-jxaKG5MZI_IA-19">
          <mxGeometry width="50" height="50" relative="1" as="geometry">
            <mxPoint x="210" y="580" as="sourcePoint" />
            <mxPoint x="260" y="530" as="targetPoint" />
          </mxGeometry>
        </mxCell>
        <mxCell id="1sGNB1V-jxaKG5MZI_IA-93" value="" style="endArrow=none;html=1;rounded=0;entryX=0;entryY=0.5;entryDx=0;entryDy=0;exitX=1;exitY=0.5;exitDx=0;exitDy=0;" edge="1" parent="1" source="1sGNB1V-jxaKG5MZI_IA-38" target="1sGNB1V-jxaKG5MZI_IA-91">
          <mxGeometry width="50" height="50" relative="1" as="geometry">
            <mxPoint x="168" y="490" as="sourcePoint" />
            <mxPoint x="490" y="625" as="targetPoint" />
          </mxGeometry>
        </mxCell>
        <mxCell id="1sGNB1V-jxaKG5MZI_IA-94" value="诊断" style="rhombus;whiteSpace=wrap;html=1;rotation=75;" vertex="1" parent="1">
          <mxGeometry x="110" y="680" width="60" height="60" as="geometry" />
        </mxCell>
        <mxCell id="1sGNB1V-jxaKG5MZI_IA-95" value="" style="endArrow=none;html=1;rounded=0;entryX=0;entryY=0.5;entryDx=0;entryDy=0;exitX=0.5;exitY=0;exitDx=0;exitDy=0;" edge="1" parent="1" source="1sGNB1V-jxaKG5MZI_IA-94" target="1sGNB1V-jxaKG5MZI_IA-19">
          <mxGeometry width="50" height="50" relative="1" as="geometry">
            <mxPoint x="100" y="800" as="sourcePoint" />
            <mxPoint x="150" y="750" as="targetPoint" />
          </mxGeometry>
        </mxCell>
        <mxCell id="1sGNB1V-jxaKG5MZI_IA-96" value="" style="endArrow=none;html=1;rounded=0;entryX=0.5;entryY=1;entryDx=0;entryDy=0;exitX=1;exitY=0.5;exitDx=0;exitDy=0;" edge="1" parent="1" source="1sGNB1V-jxaKG5MZI_IA-1" target="1sGNB1V-jxaKG5MZI_IA-94">
          <mxGeometry width="50" height="50" relative="1" as="geometry">
            <mxPoint x="-100" y="887" as="sourcePoint" />
            <mxPoint x="211" y="800" as="targetPoint" />
          </mxGeometry>
        </mxCell>
        <mxCell id="1sGNB1V-jxaKG5MZI_IA-97" value="坐班" style="rhombus;whiteSpace=wrap;html=1;rotation=0;" vertex="1" parent="1">
          <mxGeometry x="970" y="585" width="60" height="60" as="geometry" />
        </mxCell>
        <mxCell id="1sGNB1V-jxaKG5MZI_IA-98" value="" style="endArrow=none;html=1;rounded=0;entryX=0;entryY=0.5;entryDx=0;entryDy=0;exitX=1;exitY=0.5;exitDx=0;exitDy=0;" edge="1" parent="1" source="1sGNB1V-jxaKG5MZI_IA-97" target="1sGNB1V-jxaKG5MZI_IA-74">
          <mxGeometry width="50" height="50" relative="1" as="geometry">
            <mxPoint x="890" y="650" as="sourcePoint" />
            <mxPoint x="940" y="600" as="targetPoint" />
          </mxGeometry>
        </mxCell>
        <mxCell id="1sGNB1V-jxaKG5MZI_IA-99" value="" style="endArrow=none;html=1;rounded=0;entryX=0;entryY=0.5;entryDx=0;entryDy=0;exitX=1;exitY=0.5;exitDx=0;exitDy=0;" edge="1" parent="1" source="1sGNB1V-jxaKG5MZI_IA-19" target="1sGNB1V-jxaKG5MZI_IA-97">
          <mxGeometry width="50" height="50" relative="1" as="geometry">
            <mxPoint x="730" y="552.5" as="sourcePoint" />
            <mxPoint x="1151" y="567.5" as="targetPoint" />
          </mxGeometry>
        </mxCell>
        <mxCell id="1sGNB1V-jxaKG5MZI_IA-100" value="预约" style="rhombus;whiteSpace=wrap;html=1;rotation=45;" vertex="1" parent="1">
          <mxGeometry x="1030" y="755" width="60" height="60" as="geometry" />
        </mxCell>
        <mxCell id="1sGNB1V-jxaKG5MZI_IA-101" value="" style="endArrow=none;html=1;rounded=0;entryX=0.5;entryY=1;entryDx=0;entryDy=0;exitX=1;exitY=0.5;exitDx=0;exitDy=0;" edge="1" parent="1" source="1sGNB1V-jxaKG5MZI_IA-57" target="1sGNB1V-jxaKG5MZI_IA-100">
          <mxGeometry width="50" height="50" relative="1" as="geometry">
            <mxPoint x="890" y="860" as="sourcePoint" />
            <mxPoint x="1040" y="830" as="targetPoint" />
          </mxGeometry>
        </mxCell>
        <mxCell id="1sGNB1V-jxaKG5MZI_IA-102" value="" style="endArrow=none;html=1;rounded=0;entryX=0;entryY=0.5;entryDx=0;entryDy=0;exitX=0.5;exitY=0;exitDx=0;exitDy=0;" edge="1" parent="1" source="1sGNB1V-jxaKG5MZI_IA-100" target="1sGNB1V-jxaKG5MZI_IA-74">
          <mxGeometry width="50" height="50" relative="1" as="geometry">
            <mxPoint x="630" y="1015" as="sourcePoint" />
            <mxPoint x="1049" y="816" as="targetPoint" />
          </mxGeometry>
        </mxCell>
        <mxCell id="1sGNB1V-jxaKG5MZI_IA-103" value="" style="endArrow=none;html=1;rounded=0;entryX=0;entryY=0.5;entryDx=0;entryDy=0;exitX=1;exitY=0.5;exitDx=0;exitDy=0;" edge="1" parent="1" source="1sGNB1V-jxaKG5MZI_IA-105" target="1sGNB1V-jxaKG5MZI_IA-57">
          <mxGeometry width="50" height="50" relative="1" as="geometry">
            <mxPoint x="130" y="910" as="sourcePoint" />
            <mxPoint x="306" y="890" as="targetPoint" />
          </mxGeometry>
        </mxCell>
        <mxCell id="1sGNB1V-jxaKG5MZI_IA-105" value="查看" style="rhombus;whiteSpace=wrap;html=1;rotation=15;" vertex="1" parent="1">
          <mxGeometry x="70.5" y="870" width="60" height="60" as="geometry" />
        </mxCell>
        <mxCell id="1sGNB1V-jxaKG5MZI_IA-106" value="" style="endArrow=none;html=1;rounded=0;entryX=0;entryY=0.5;entryDx=0;entryDy=0;exitX=1;exitY=0.5;exitDx=0;exitDy=0;" edge="1" parent="1" source="1sGNB1V-jxaKG5MZI_IA-1" target="1sGNB1V-jxaKG5MZI_IA-105">
          <mxGeometry width="50" height="50" relative="1" as="geometry">
            <mxPoint x="139" y="918" as="sourcePoint" />
            <mxPoint x="530" y="1015" as="targetPoint" />
          </mxGeometry>
        </mxCell>
      </root>
    </mxGraphModel>
  </diagram>
</mxfile>
